<?xml version="1.0" encoding="utf-8" standalone="no"?>
<!DOCTYPE svg PUBLIC "-//W3C//DTD SVG 1.1//EN"
  "http://www.w3.org/Graphics/SVG/1.1/DTD/svg11.dtd">
<svg xmlns:xlink="http://www.w3.org/1999/xlink" width="864pt" height="576pt" viewBox="0 0 864 576" xmlns="http://www.w3.org/2000/svg" version="1.1">
 <metadata>
  <rdf:RDF xmlns:dc="http://purl.org/dc/elements/1.1/" xmlns:cc="http://creativecommons.org/ns#" xmlns:rdf="http://www.w3.org/1999/02/22-rdf-syntax-ns#">
   <cc:Work>
    <dc:type rdf:resource="http://purl.org/dc/dcmitype/StillImage"/>
    <dc:date>2025-12-07T18:25:27.073963</dc:date>
    <dc:format>image/svg+xml</dc:format>
    <dc:creator>
     <cc:Agent>
      <dc:title>Matplotlib v3.10.7, https://matplotlib.org/</dc:title>
     </cc:Agent>
    </dc:creator>
   </cc:Work>
  </rdf:RDF>
 </metadata>
 <defs>
  <style type="text/css">*{stroke-linejoin: round; stroke-linecap: butt}</style>
 </defs>
 <g id="figure_1">
  <g id="patch_1">
   <path d="M 0 576 
L 864 576 
L 864 0 
L 0 0 
z
" style="fill: #ffffff"/>
  </g>
  <g id="axes_1">
   <g id="patch_2">
    <path d="M 58.933304 484.314412 
L 853.2 484.314412 
L 853.2 27.6 
L 58.933304 27.6 
z
" style="fill: #e5e5e5"/>
   </g>
   <g id="matplotlib.axis_1">
    <g id="xtick_1">
     <g id="line2d_1">
      <path d="M 115.666639 484.314412 
L 115.666639 27.6 
" clip-path="url(#pc0fa6af1c6)" style="fill: none; stroke: #ffffff; stroke-width: 0.8; stroke-linecap: square"/>
     </g>
     <g id="line2d_2">
      <defs>
       <path id="mb4f5b6664d" d="M 0 0 
L 0 3.5 
" style="stroke: #555555; stroke-width: 0.8"/>
      </defs>
      <g>
       <use xlink:href="#mb4f5b6664d" x="115.666639" y="484.314412" style="fill: #555555; stroke: #555555; stroke-width: 0.8"/>
      </g>
     </g>
     <g id="text_1">
      <!-- Longest-Affine -->
      <g style="fill: #555555" transform="translate(63.528563 547.354835) rotate(-45) scale(0.1 -0.1)">
       <defs>
        <path id="DejaVuSans-4c" d="M 628 4666 
L 1259 4666 
L 1259 531 
L 3531 531 
L 3531 0 
L 628 0 
L 628 4666 
z
" transform="scale(0.015625)"/>
        <path id="DejaVuSans-6f" d="M 1959 3097 
Q 1497 3097 1228 2736 
Q 959 2375 959 1747 
Q 959 1119 1226 758 
Q 1494 397 1959 397 
Q 2419 397 2687 759 
Q 2956 1122 2956 1747 
Q 2956 2369 2687 2733 
Q 2419 3097 1959 3097 
z
M 1959 3584 
Q 2709 3584 3137 3096 
Q 3566 2609 3566 1747 
Q 3566 888 3137 398 
Q 2709 -91 1959 -91 
Q 1206 -91 779 398 
Q 353 888 353 1747 
Q 353 2609 779 3096 
Q 1206 3584 1959 3584 
z
" transform="scale(0.015625)"/>
        <path id="DejaVuSans-6e" d="M 3513 2113 
L 3513 0 
L 2938 0 
L 2938 2094 
Q 2938 2591 2744 2837 
Q 2550 3084 2163 3084 
Q 1697 3084 1428 2787 
Q 1159 2491 1159 1978 
L 1159 0 
L 581 0 
L 581 3500 
L 1159 3500 
L 1159 2956 
Q 1366 3272 1645 3428 
Q 1925 3584 2291 3584 
Q 2894 3584 3203 3211 
Q 3513 2838 3513 2113 
z
" transform="scale(0.015625)"/>
        <path id="DejaVuSans-67" d="M 2906 1791 
Q 2906 2416 2648 2759 
Q 2391 3103 1925 3103 
Q 1463 3103 1205 2759 
Q 947 2416 947 1791 
Q 947 1169 1205 825 
Q 1463 481 1925 481 
Q 2391 481 2648 825 
Q 2906 1169 2906 1791 
z
M 3481 434 
Q 3481 -459 3084 -895 
Q 2688 -1331 1869 -1331 
Q 1566 -1331 1297 -1286 
Q 1028 -1241 775 -1147 
L 775 -588 
Q 1028 -725 1275 -790 
Q 1522 -856 1778 -856 
Q 2344 -856 2625 -561 
Q 2906 -266 2906 331 
L 2906 616 
Q 2728 306 2450 153 
Q 2172 0 1784 0 
Q 1141 0 747 490 
Q 353 981 353 1791 
Q 353 2603 747 3093 
Q 1141 3584 1784 3584 
Q 2172 3584 2450 3431 
Q 2728 3278 2906 2969 
L 2906 3500 
L 3481 3500 
L 3481 434 
z
" transform="scale(0.015625)"/>
        <path id="DejaVuSans-65" d="M 3597 1894 
L 3597 1613 
L 953 1613 
Q 991 1019 1311 708 
Q 1631 397 2203 397 
Q 2534 397 2845 478 
Q 3156 559 3463 722 
L 3463 178 
Q 3153 47 2828 -22 
Q 2503 -91 2169 -91 
Q 1331 -91 842 396 
Q 353 884 353 1716 
Q 353 2575 817 3079 
Q 1281 3584 2069 3584 
Q 2775 3584 3186 3129 
Q 3597 2675 3597 1894 
z
M 3022 2063 
Q 3016 2534 2758 2815 
Q 2500 3097 2075 3097 
Q 1594 3097 1305 2825 
Q 1016 2553 972 2059 
L 3022 2063 
z
" transform="scale(0.015625)"/>
        <path id="DejaVuSans-73" d="M 2834 3397 
L 2834 2853 
Q 2591 2978 2328 3040 
Q 2066 3103 1784 3103 
Q 1356 3103 1142 2972 
Q 928 2841 928 2578 
Q 928 2378 1081 2264 
Q 1234 2150 1697 2047 
L 1894 2003 
Q 2506 1872 2764 1633 
Q 3022 1394 3022 966 
Q 3022 478 2636 193 
Q 2250 -91 1575 -91 
Q 1294 -91 989 -36 
Q 684 19 347 128 
L 347 722 
Q 666 556 975 473 
Q 1284 391 1588 391 
Q 1994 391 2212 530 
Q 2431 669 2431 922 
Q 2431 1156 2273 1281 
Q 2116 1406 1581 1522 
L 1381 1569 
Q 847 1681 609 1914 
Q 372 2147 372 2553 
Q 372 3047 722 3315 
Q 1072 3584 1716 3584 
Q 2034 3584 2315 3537 
Q 2597 3491 2834 3397 
z
" transform="scale(0.015625)"/>
        <path id="DejaVuSans-74" d="M 1172 4494 
L 1172 3500 
L 2356 3500 
L 2356 3053 
L 1172 3053 
L 1172 1153 
Q 1172 725 1289 603 
Q 1406 481 1766 481 
L 2356 481 
L 2356 0 
L 1766 0 
Q 1100 0 847 248 
Q 594 497 594 1153 
L 594 3053 
L 172 3053 
L 172 3500 
L 594 3500 
L 594 4494 
L 1172 4494 
z
" transform="scale(0.015625)"/>
        <path id="DejaVuSans-2d" d="M 313 2009 
L 1997 2009 
L 1997 1497 
L 313 1497 
L 313 2009 
z
" transform="scale(0.015625)"/>
        <path id="DejaVuSans-41" d="M 2188 4044 
L 1331 1722 
L 3047 1722 
L 2188 4044 
z
M 1831 4666 
L 2547 4666 
L 4325 0 
L 3669 0 
L 3244 1197 
L 1141 1197 
L 716 0 
L 50 0 
L 1831 4666 
z
" transform="scale(0.015625)"/>
        <path id="DejaVuSans-66" d="M 2375 4863 
L 2375 4384 
L 1825 4384 
Q 1516 4384 1395 4259 
Q 1275 4134 1275 3809 
L 1275 3500 
L 2222 3500 
L 2222 3053 
L 1275 3053 
L 1275 0 
L 697 0 
L 697 3053 
L 147 3053 
L 147 3500 
L 697 3500 
L 697 3744 
Q 697 4328 969 4595 
Q 1241 4863 1831 4863 
L 2375 4863 
z
" transform="scale(0.015625)"/>
        <path id="DejaVuSans-69" d="M 603 3500 
L 1178 3500 
L 1178 0 
L 603 0 
L 603 3500 
z
M 603 4863 
L 1178 4863 
L 1178 4134 
L 603 4134 
L 603 4863 
z
" transform="scale(0.015625)"/>
       </defs>
       <use xlink:href="#DejaVuSans-4c"/>
       <use xlink:href="#DejaVuSans-6f" transform="translate(53.962891 0)"/>
       <use xlink:href="#DejaVuSans-6e" transform="translate(115.144531 0)"/>
       <use xlink:href="#DejaVuSans-67" transform="translate(178.523438 0)"/>
       <use xlink:href="#DejaVuSans-65" transform="translate(242 0)"/>
       <use xlink:href="#DejaVuSans-73" transform="translate(303.523438 0)"/>
       <use xlink:href="#DejaVuSans-74" transform="translate(355.623047 0)"/>
       <use xlink:href="#DejaVuSans-2d" transform="translate(394.832031 0)"/>
       <use xlink:href="#DejaVuSans-41" transform="translate(428.666016 0)"/>
       <use xlink:href="#DejaVuSans-66" transform="translate(493.449219 0)"/>
       <use xlink:href="#DejaVuSans-66" transform="translate(528.654297 0)"/>
       <use xlink:href="#DejaVuSans-69" transform="translate(563.859375 0)"/>
       <use xlink:href="#DejaVuSans-6e" transform="translate(591.642578 0)"/>
       <use xlink:href="#DejaVuSans-65" transform="translate(655.021484 0)"/>
      </g>
     </g>
    </g>
    <g id="xtick_2">
     <g id="line2d_3">
      <path d="M 229.13331 484.314412 
L 229.13331 27.6 
" clip-path="url(#pc0fa6af1c6)" style="fill: none; stroke: #ffffff; stroke-width: 0.8; stroke-linecap: square"/>
     </g>
     <g id="line2d_4">
      <g>
       <use xlink:href="#mb4f5b6664d" x="229.13331" y="484.314412" style="fill: #555555; stroke: #555555; stroke-width: 0.8"/>
      </g>
     </g>
     <g id="text_2">
      <!-- Longest-Bernstein -->
      <g style="fill: #555555" transform="translate(163.729248 560.620821) rotate(-45) scale(0.1 -0.1)">
       <defs>
        <path id="DejaVuSans-42" d="M 1259 2228 
L 1259 519 
L 2272 519 
Q 2781 519 3026 730 
Q 3272 941 3272 1375 
Q 3272 1813 3026 2020 
Q 2781 2228 2272 2228 
L 1259 2228 
z
M 1259 4147 
L 1259 2741 
L 2194 2741 
Q 2656 2741 2882 2914 
Q 3109 3088 3109 3444 
Q 3109 3797 2882 3972 
Q 2656 4147 2194 4147 
L 1259 4147 
z
M 628 4666 
L 2241 4666 
Q 2963 4666 3353 4366 
Q 3744 4066 3744 3513 
Q 3744 3084 3544 2831 
Q 3344 2578 2956 2516 
Q 3422 2416 3680 2098 
Q 3938 1781 3938 1306 
Q 3938 681 3513 340 
Q 3088 0 2303 0 
L 628 0 
L 628 4666 
z
" transform="scale(0.015625)"/>
        <path id="DejaVuSans-72" d="M 2631 2963 
Q 2534 3019 2420 3045 
Q 2306 3072 2169 3072 
Q 1681 3072 1420 2755 
Q 1159 2438 1159 1844 
L 1159 0 
L 581 0 
L 581 3500 
L 1159 3500 
L 1159 2956 
Q 1341 3275 1631 3429 
Q 1922 3584 2338 3584 
Q 2397 3584 2469 3576 
Q 2541 3569 2628 3553 
L 2631 2963 
z
" transform="scale(0.015625)"/>
       </defs>
       <use xlink:href="#DejaVuSans-4c"/>
       <use xlink:href="#DejaVuSans-6f" transform="translate(53.962891 0)"/>
       <use xlink:href="#DejaVuSans-6e" transform="translate(115.144531 0)"/>
       <use xlink:href="#DejaVuSans-67" transform="translate(178.523438 0)"/>
       <use xlink:href="#DejaVuSans-65" transform="translate(242 0)"/>
       <use xlink:href="#DejaVuSans-73" transform="translate(303.523438 0)"/>
       <use xlink:href="#DejaVuSans-74" transform="translate(355.623047 0)"/>
       <use xlink:href="#DejaVuSans-2d" transform="translate(394.832031 0)"/>
       <use xlink:href="#DejaVuSans-42" transform="translate(427.291016 0)"/>
       <use xlink:href="#DejaVuSans-65" transform="translate(495.894531 0)"/>
       <use xlink:href="#DejaVuSans-72" transform="translate(557.417969 0)"/>
       <use xlink:href="#DejaVuSans-6e" transform="translate(596.78125 0)"/>
       <use xlink:href="#DejaVuSans-73" transform="translate(660.160156 0)"/>
       <use xlink:href="#DejaVuSans-74" transform="translate(712.259766 0)"/>
       <use xlink:href="#DejaVuSans-65" transform="translate(751.46875 0)"/>
       <use xlink:href="#DejaVuSans-69" transform="translate(812.992188 0)"/>
       <use xlink:href="#DejaVuSans-6e" transform="translate(840.775391 0)"/>
      </g>
     </g>
    </g>
    <g id="xtick_3">
     <g id="line2d_5">
      <path d="M 342.599981 484.314412 
L 342.599981 27.6 
" clip-path="url(#pc0fa6af1c6)" style="fill: none; stroke: #ffffff; stroke-width: 0.8; stroke-linecap: square"/>
     </g>
     <g id="line2d_6">
      <g>
       <use xlink:href="#mb4f5b6664d" x="342.599981" y="484.314412" style="fill: #555555; stroke: #555555; stroke-width: 0.8"/>
      </g>
     </g>
     <g id="text_3">
      <!-- Gradient-Affine -->
      <g style="fill: #555555" transform="translate(287.604751 550.211988) rotate(-45) scale(0.1 -0.1)">
       <defs>
        <path id="DejaVuSans-47" d="M 3809 666 
L 3809 1919 
L 2778 1919 
L 2778 2438 
L 4434 2438 
L 4434 434 
Q 4069 175 3628 42 
Q 3188 -91 2688 -91 
Q 1594 -91 976 548 
Q 359 1188 359 2328 
Q 359 3472 976 4111 
Q 1594 4750 2688 4750 
Q 3144 4750 3555 4637 
Q 3966 4525 4313 4306 
L 4313 3634 
Q 3963 3931 3569 4081 
Q 3175 4231 2741 4231 
Q 1884 4231 1454 3753 
Q 1025 3275 1025 2328 
Q 1025 1384 1454 906 
Q 1884 428 2741 428 
Q 3075 428 3337 486 
Q 3600 544 3809 666 
z
" transform="scale(0.015625)"/>
        <path id="DejaVuSans-61" d="M 2194 1759 
Q 1497 1759 1228 1600 
Q 959 1441 959 1056 
Q 959 750 1161 570 
Q 1363 391 1709 391 
Q 2188 391 2477 730 
Q 2766 1069 2766 1631 
L 2766 1759 
L 2194 1759 
z
M 3341 1997 
L 3341 0 
L 2766 0 
L 2766 531 
Q 2569 213 2275 61 
Q 1981 -91 1556 -91 
Q 1019 -91 701 211 
Q 384 513 384 1019 
Q 384 1609 779 1909 
Q 1175 2209 1959 2209 
L 2766 2209 
L 2766 2266 
Q 2766 2663 2505 2880 
Q 2244 3097 1772 3097 
Q 1472 3097 1187 3025 
Q 903 2953 641 2809 
L 641 3341 
Q 956 3463 1253 3523 
Q 1550 3584 1831 3584 
Q 2591 3584 2966 3190 
Q 3341 2797 3341 1997 
z
" transform="scale(0.015625)"/>
        <path id="DejaVuSans-64" d="M 2906 2969 
L 2906 4863 
L 3481 4863 
L 3481 0 
L 2906 0 
L 2906 525 
Q 2725 213 2448 61 
Q 2172 -91 1784 -91 
Q 1150 -91 751 415 
Q 353 922 353 1747 
Q 353 2572 751 3078 
Q 1150 3584 1784 3584 
Q 2172 3584 2448 3432 
Q 2725 3281 2906 2969 
z
M 947 1747 
Q 947 1113 1208 752 
Q 1469 391 1925 391 
Q 2381 391 2643 752 
Q 2906 1113 2906 1747 
Q 2906 2381 2643 2742 
Q 2381 3103 1925 3103 
Q 1469 3103 1208 2742 
Q 947 2381 947 1747 
z
" transform="scale(0.015625)"/>
       </defs>
       <use xlink:href="#DejaVuSans-47"/>
       <use xlink:href="#DejaVuSans-72" transform="translate(77.490234 0)"/>
       <use xlink:href="#DejaVuSans-61" transform="translate(118.603516 0)"/>
       <use xlink:href="#DejaVuSans-64" transform="translate(179.882812 0)"/>
       <use xlink:href="#DejaVuSans-69" transform="translate(243.359375 0)"/>
       <use xlink:href="#DejaVuSans-65" transform="translate(271.142578 0)"/>
       <use xlink:href="#DejaVuSans-6e" transform="translate(332.666016 0)"/>
       <use xlink:href="#DejaVuSans-74" transform="translate(396.044922 0)"/>
       <use xlink:href="#DejaVuSans-2d" transform="translate(435.253906 0)"/>
       <use xlink:href="#DejaVuSans-41" transform="translate(469.087891 0)"/>
       <use xlink:href="#DejaVuSans-66" transform="translate(533.871094 0)"/>
       <use xlink:href="#DejaVuSans-66" transform="translate(569.076172 0)"/>
       <use xlink:href="#DejaVuSans-69" transform="translate(604.28125 0)"/>
       <use xlink:href="#DejaVuSans-6e" transform="translate(632.064453 0)"/>
       <use xlink:href="#DejaVuSans-65" transform="translate(695.443359 0)"/>
      </g>
     </g>
    </g>
    <g id="xtick_4">
     <g id="line2d_7">
      <path d="M 456.066652 484.314412 
L 456.066652 27.6 
" clip-path="url(#pc0fa6af1c6)" style="fill: none; stroke: #ffffff; stroke-width: 0.8; stroke-linecap: square"/>
     </g>
     <g id="line2d_8">
      <g>
       <use xlink:href="#mb4f5b6664d" x="456.066652" y="484.314412" style="fill: #555555; stroke: #555555; stroke-width: 0.8"/>
      </g>
     </g>
     <g id="text_4">
      <!-- Gradient-Bernstein -->
      <g style="fill: #555555" transform="translate(387.805436 563.477974) rotate(-45) scale(0.1 -0.1)">
       <use xlink:href="#DejaVuSans-47"/>
       <use xlink:href="#DejaVuSans-72" transform="translate(77.490234 0)"/>
       <use xlink:href="#DejaVuSans-61" transform="translate(118.603516 0)"/>
       <use xlink:href="#DejaVuSans-64" transform="translate(179.882812 0)"/>
       <use xlink:href="#DejaVuSans-69" transform="translate(243.359375 0)"/>
       <use xlink:href="#DejaVuSans-65" transform="translate(271.142578 0)"/>
       <use xlink:href="#DejaVuSans-6e" transform="translate(332.666016 0)"/>
       <use xlink:href="#DejaVuSans-74" transform="translate(396.044922 0)"/>
       <use xlink:href="#DejaVuSans-2d" transform="translate(435.253906 0)"/>
       <use xlink:href="#DejaVuSans-42" transform="translate(467.712891 0)"/>
       <use xlink:href="#DejaVuSans-65" transform="translate(536.316406 0)"/>
       <use xlink:href="#DejaVuSans-72" transform="translate(597.839844 0)"/>
       <use xlink:href="#DejaVuSans-6e" transform="translate(637.203125 0)"/>
       <use xlink:href="#DejaVuSans-73" transform="translate(700.582031 0)"/>
       <use xlink:href="#DejaVuSans-74" transform="translate(752.681641 0)"/>
       <use xlink:href="#DejaVuSans-65" transform="translate(791.890625 0)"/>
       <use xlink:href="#DejaVuSans-69" transform="translate(853.414062 0)"/>
       <use xlink:href="#DejaVuSans-6e" transform="translate(881.197266 0)"/>
      </g>
     </g>
    </g>
    <g id="xtick_5">
     <g id="line2d_9">
      <path d="M 569.533323 484.314412 
L 569.533323 27.6 
" clip-path="url(#pc0fa6af1c6)" style="fill: none; stroke: #ffffff; stroke-width: 0.8; stroke-linecap: square"/>
     </g>
     <g id="line2d_10">
      <g>
       <use xlink:href="#mb4f5b6664d" x="569.533323" y="484.314412" style="fill: #555555; stroke: #555555; stroke-width: 0.8"/>
      </g>
     </g>
     <g id="text_5">
      <!-- SHGO -->
      <g style="fill: #555555" transform="translate(547.210846 517.539235) rotate(-45) scale(0.1 -0.1)">
       <defs>
        <path id="DejaVuSans-53" d="M 3425 4513 
L 3425 3897 
Q 3066 4069 2747 4153 
Q 2428 4238 2131 4238 
Q 1616 4238 1336 4038 
Q 1056 3838 1056 3469 
Q 1056 3159 1242 3001 
Q 1428 2844 1947 2747 
L 2328 2669 
Q 3034 2534 3370 2195 
Q 3706 1856 3706 1288 
Q 3706 609 3251 259 
Q 2797 -91 1919 -91 
Q 1588 -91 1214 -16 
Q 841 59 441 206 
L 441 856 
Q 825 641 1194 531 
Q 1563 422 1919 422 
Q 2459 422 2753 634 
Q 3047 847 3047 1241 
Q 3047 1584 2836 1778 
Q 2625 1972 2144 2069 
L 1759 2144 
Q 1053 2284 737 2584 
Q 422 2884 422 3419 
Q 422 4038 858 4394 
Q 1294 4750 2059 4750 
Q 2388 4750 2728 4690 
Q 3069 4631 3425 4513 
z
" transform="scale(0.015625)"/>
        <path id="DejaVuSans-48" d="M 628 4666 
L 1259 4666 
L 1259 2753 
L 3553 2753 
L 3553 4666 
L 4184 4666 
L 4184 0 
L 3553 0 
L 3553 2222 
L 1259 2222 
L 1259 0 
L 628 0 
L 628 4666 
z
" transform="scale(0.015625)"/>
        <path id="DejaVuSans-4f" d="M 2522 4238 
Q 1834 4238 1429 3725 
Q 1025 3213 1025 2328 
Q 1025 1447 1429 934 
Q 1834 422 2522 422 
Q 3209 422 3611 934 
Q 4013 1447 4013 2328 
Q 4013 3213 3611 3725 
Q 3209 4238 2522 4238 
z
M 2522 4750 
Q 3503 4750 4090 4092 
Q 4678 3434 4678 2328 
Q 4678 1225 4090 567 
Q 3503 -91 2522 -91 
Q 1538 -91 948 565 
Q 359 1222 359 2328 
Q 359 3434 948 4092 
Q 1538 4750 2522 4750 
z
" transform="scale(0.015625)"/>
       </defs>
       <use xlink:href="#DejaVuSans-53"/>
       <use xlink:href="#DejaVuSans-48" transform="translate(63.476562 0)"/>
       <use xlink:href="#DejaVuSans-47" transform="translate(138.671875 0)"/>
       <use xlink:href="#DejaVuSans-4f" transform="translate(216.162109 0)"/>
      </g>
     </g>
    </g>
    <g id="xtick_6">
     <g id="line2d_11">
      <path d="M 682.999994 484.314412 
L 682.999994 27.6 
" clip-path="url(#pc0fa6af1c6)" style="fill: none; stroke: #ffffff; stroke-width: 0.8; stroke-linecap: square"/>
     </g>
     <g id="line2d_12">
      <g>
       <use xlink:href="#mb4f5b6664d" x="682.999994" y="484.314412" style="fill: #555555; stroke: #555555; stroke-width: 0.8"/>
      </g>
     </g>
     <g id="text_6">
      <!-- Diff. Evo. -->
      <g style="fill: #555555" transform="translate(650.056552 528.1602) rotate(-45) scale(0.1 -0.1)">
       <defs>
        <path id="DejaVuSans-44" d="M 1259 4147 
L 1259 519 
L 2022 519 
Q 2988 519 3436 956 
Q 3884 1394 3884 2338 
Q 3884 3275 3436 3711 
Q 2988 4147 2022 4147 
L 1259 4147 
z
M 628 4666 
L 1925 4666 
Q 3281 4666 3915 4102 
Q 4550 3538 4550 2338 
Q 4550 1131 3912 565 
Q 3275 0 1925 0 
L 628 0 
L 628 4666 
z
" transform="scale(0.015625)"/>
        <path id="DejaVuSans-2e" d="M 684 794 
L 1344 794 
L 1344 0 
L 684 0 
L 684 794 
z
" transform="scale(0.015625)"/>
        <path id="DejaVuSans-20" transform="scale(0.015625)"/>
        <path id="DejaVuSans-45" d="M 628 4666 
L 3578 4666 
L 3578 4134 
L 1259 4134 
L 1259 2753 
L 3481 2753 
L 3481 2222 
L 1259 2222 
L 1259 531 
L 3634 531 
L 3634 0 
L 628 0 
L 628 4666 
z
" transform="scale(0.015625)"/>
        <path id="DejaVuSans-76" d="M 191 3500 
L 800 3500 
L 1894 563 
L 2988 3500 
L 3597 3500 
L 2284 0 
L 1503 0 
L 191 3500 
z
" transform="scale(0.015625)"/>
       </defs>
       <use xlink:href="#DejaVuSans-44"/>
       <use xlink:href="#DejaVuSans-69" transform="translate(77.001953 0)"/>
       <use xlink:href="#DejaVuSans-66" transform="translate(104.785156 0)"/>
       <use xlink:href="#DejaVuSans-66" transform="translate(139.990234 0)"/>
       <use xlink:href="#DejaVuSans-2e" transform="translate(167.945312 0)"/>
       <use xlink:href="#DejaVuSans-20" transform="translate(199.732422 0)"/>
       <use xlink:href="#DejaVuSans-45" transform="translate(231.519531 0)"/>
       <use xlink:href="#DejaVuSans-76" transform="translate(294.703125 0)"/>
       <use xlink:href="#DejaVuSans-6f" transform="translate(353.882812 0)"/>
       <use xlink:href="#DejaVuSans-2e" transform="translate(413.314453 0)"/>
      </g>
     </g>
    </g>
    <g id="xtick_7">
     <g id="line2d_13">
      <path d="M 796.466665 484.314412 
L 796.466665 27.6 
" clip-path="url(#pc0fa6af1c6)" style="fill: none; stroke: #ffffff; stroke-width: 0.8; stroke-linecap: square"/>
     </g>
     <g id="line2d_14">
      <g>
       <use xlink:href="#mb4f5b6664d" x="796.466665" y="484.314412" style="fill: #555555; stroke: #555555; stroke-width: 0.8"/>
      </g>
     </g>
     <g id="text_7">
      <!-- Dual Annealing -->
      <g style="fill: #555555" transform="translate(741.142188 550.541234) rotate(-45) scale(0.1 -0.1)">
       <defs>
        <path id="DejaVuSans-75" d="M 544 1381 
L 544 3500 
L 1119 3500 
L 1119 1403 
Q 1119 906 1312 657 
Q 1506 409 1894 409 
Q 2359 409 2629 706 
Q 2900 1003 2900 1516 
L 2900 3500 
L 3475 3500 
L 3475 0 
L 2900 0 
L 2900 538 
Q 2691 219 2414 64 
Q 2138 -91 1772 -91 
Q 1169 -91 856 284 
Q 544 659 544 1381 
z
M 1991 3584 
L 1991 3584 
z
" transform="scale(0.015625)"/>
        <path id="DejaVuSans-6c" d="M 603 4863 
L 1178 4863 
L 1178 0 
L 603 0 
L 603 4863 
z
" transform="scale(0.015625)"/>
       </defs>
       <use xlink:href="#DejaVuSans-44"/>
       <use xlink:href="#DejaVuSans-75" transform="translate(77.001953 0)"/>
       <use xlink:href="#DejaVuSans-61" transform="translate(140.380859 0)"/>
       <use xlink:href="#DejaVuSans-6c" transform="translate(201.660156 0)"/>
       <use xlink:href="#DejaVuSans-20" transform="translate(229.443359 0)"/>
       <use xlink:href="#DejaVuSans-41" transform="translate(261.230469 0)"/>
       <use xlink:href="#DejaVuSans-6e" transform="translate(329.638672 0)"/>
       <use xlink:href="#DejaVuSans-6e" transform="translate(393.017578 0)"/>
       <use xlink:href="#DejaVuSans-65" transform="translate(456.396484 0)"/>
       <use xlink:href="#DejaVuSans-61" transform="translate(517.919922 0)"/>
       <use xlink:href="#DejaVuSans-6c" transform="translate(579.199219 0)"/>
       <use xlink:href="#DejaVuSans-69" transform="translate(606.982422 0)"/>
       <use xlink:href="#DejaVuSans-6e" transform="translate(634.765625 0)"/>
       <use xlink:href="#DejaVuSans-67" transform="translate(698.144531 0)"/>
      </g>
     </g>
    </g>
   </g>
   <g id="matplotlib.axis_2">
    <g id="ytick_1">
     <g id="line2d_15">
      <path d="M 58.933304 473.727935 
L 853.2 473.727935 
" clip-path="url(#pc0fa6af1c6)" style="fill: none; stroke: #ffffff; stroke-width: 0.8; stroke-linecap: square"/>
     </g>
     <g id="line2d_16">
      <defs>
       <path id="m224b15f216" d="M 0 0 
L -3.5 0 
" style="stroke: #555555; stroke-width: 0.8"/>
      </defs>
      <g>
       <use xlink:href="#m224b15f216" x="58.933304" y="473.727935" style="fill: #555555; stroke: #555555; stroke-width: 0.8"/>
      </g>
     </g>
     <g id="text_8">
      <!-- $\mathdefault{10^{-3}}$ -->
      <g style="fill: #555555" transform="translate(28.433304 477.527154) scale(0.1 -0.1)">
       <defs>
        <path id="DejaVuSans-31" d="M 794 531 
L 1825 531 
L 1825 4091 
L 703 3866 
L 703 4441 
L 1819 4666 
L 2450 4666 
L 2450 531 
L 3481 531 
L 3481 0 
L 794 0 
L 794 531 
z
" transform="scale(0.015625)"/>
        <path id="DejaVuSans-30" d="M 2034 4250 
Q 1547 4250 1301 3770 
Q 1056 3291 1056 2328 
Q 1056 1369 1301 889 
Q 1547 409 2034 409 
Q 2525 409 2770 889 
Q 3016 1369 3016 2328 
Q 3016 3291 2770 3770 
Q 2525 4250 2034 4250 
z
M 2034 4750 
Q 2819 4750 3233 4129 
Q 3647 3509 3647 2328 
Q 3647 1150 3233 529 
Q 2819 -91 2034 -91 
Q 1250 -91 836 529 
Q 422 1150 422 2328 
Q 422 3509 836 4129 
Q 1250 4750 2034 4750 
z
" transform="scale(0.015625)"/>
        <path id="DejaVuSans-2212" d="M 678 2272 
L 4684 2272 
L 4684 1741 
L 678 1741 
L 678 2272 
z
" transform="scale(0.015625)"/>
        <path id="DejaVuSans-33" d="M 2597 2516 
Q 3050 2419 3304 2112 
Q 3559 1806 3559 1356 
Q 3559 666 3084 287 
Q 2609 -91 1734 -91 
Q 1441 -91 1130 -33 
Q 819 25 488 141 
L 488 750 
Q 750 597 1062 519 
Q 1375 441 1716 441 
Q 2309 441 2620 675 
Q 2931 909 2931 1356 
Q 2931 1769 2642 2001 
Q 2353 2234 1838 2234 
L 1294 2234 
L 1294 2753 
L 1863 2753 
Q 2328 2753 2575 2939 
Q 2822 3125 2822 3475 
Q 2822 3834 2567 4026 
Q 2313 4219 1838 4219 
Q 1578 4219 1281 4162 
Q 984 4106 628 3988 
L 628 4550 
Q 988 4650 1302 4700 
Q 1616 4750 1894 4750 
Q 2613 4750 3031 4423 
Q 3450 4097 3450 3541 
Q 3450 3153 3228 2886 
Q 3006 2619 2597 2516 
z
" transform="scale(0.015625)"/>
       </defs>
       <use xlink:href="#DejaVuSans-31" transform="translate(0 0.765625)"/>
       <use xlink:href="#DejaVuSans-30" transform="translate(63.623047 0.765625)"/>
       <use xlink:href="#DejaVuSans-2212" transform="translate(128.203125 39.046875) scale(0.7)"/>
       <use xlink:href="#DejaVuSans-33" transform="translate(186.855469 39.046875) scale(0.7)"/>
      </g>
     </g>
    </g>
    <g id="ytick_2">
     <g id="line2d_17">
      <path d="M 58.933304 369.91601 
L 853.2 369.91601 
" clip-path="url(#pc0fa6af1c6)" style="fill: none; stroke: #ffffff; stroke-width: 0.8; stroke-linecap: square"/>
     </g>
     <g id="line2d_18">
      <g>
       <use xlink:href="#m224b15f216" x="58.933304" y="369.91601" style="fill: #555555; stroke: #555555; stroke-width: 0.8"/>
      </g>
     </g>
     <g id="text_9">
      <!-- $\mathdefault{10^{-2}}$ -->
      <g style="fill: #555555" transform="translate(28.433304 373.715229) scale(0.1 -0.1)">
       <defs>
        <path id="DejaVuSans-32" d="M 1228 531 
L 3431 531 
L 3431 0 
L 469 0 
L 469 531 
Q 828 903 1448 1529 
Q 2069 2156 2228 2338 
Q 2531 2678 2651 2914 
Q 2772 3150 2772 3378 
Q 2772 3750 2511 3984 
Q 2250 4219 1831 4219 
Q 1534 4219 1204 4116 
Q 875 4013 500 3803 
L 500 4441 
Q 881 4594 1212 4672 
Q 1544 4750 1819 4750 
Q 2544 4750 2975 4387 
Q 3406 4025 3406 3419 
Q 3406 3131 3298 2873 
Q 3191 2616 2906 2266 
Q 2828 2175 2409 1742 
Q 1991 1309 1228 531 
z
" transform="scale(0.015625)"/>
       </defs>
       <use xlink:href="#DejaVuSans-31" transform="translate(0 0.765625)"/>
       <use xlink:href="#DejaVuSans-30" transform="translate(63.623047 0.765625)"/>
       <use xlink:href="#DejaVuSans-2212" transform="translate(128.203125 39.046875) scale(0.7)"/>
       <use xlink:href="#DejaVuSans-32" transform="translate(186.855469 39.046875) scale(0.7)"/>
      </g>
     </g>
    </g>
    <g id="ytick_3">
     <g id="line2d_19">
      <path d="M 58.933304 266.104085 
L 853.2 266.104085 
" clip-path="url(#pc0fa6af1c6)" style="fill: none; stroke: #ffffff; stroke-width: 0.8; stroke-linecap: square"/>
     </g>
     <g id="line2d_20">
      <g>
       <use xlink:href="#m224b15f216" x="58.933304" y="266.104085" style="fill: #555555; stroke: #555555; stroke-width: 0.8"/>
      </g>
     </g>
     <g id="text_10">
      <!-- $\mathdefault{10^{-1}}$ -->
      <g style="fill: #555555" transform="translate(28.433304 269.903303) scale(0.1 -0.1)">
       <use xlink:href="#DejaVuSans-31" transform="translate(0 0.684375)"/>
       <use xlink:href="#DejaVuSans-30" transform="translate(63.623047 0.684375)"/>
       <use xlink:href="#DejaVuSans-2212" transform="translate(128.203125 38.965625) scale(0.7)"/>
       <use xlink:href="#DejaVuSans-31" transform="translate(186.855469 38.965625) scale(0.7)"/>
      </g>
     </g>
    </g>
    <g id="ytick_4">
     <g id="line2d_21">
      <path d="M 58.933304 162.292159 
L 853.2 162.292159 
" clip-path="url(#pc0fa6af1c6)" style="fill: none; stroke: #ffffff; stroke-width: 0.8; stroke-linecap: square"/>
     </g>
     <g id="line2d_22">
      <g>
       <use xlink:href="#m224b15f216" x="58.933304" y="162.292159" style="fill: #555555; stroke: #555555; stroke-width: 0.8"/>
      </g>
     </g>
     <g id="text_11">
      <!-- $\mathdefault{10^{0}}$ -->
      <g style="fill: #555555" transform="translate(34.333304 166.091378) scale(0.1 -0.1)">
       <use xlink:href="#DejaVuSans-31" transform="translate(0 0.765625)"/>
       <use xlink:href="#DejaVuSans-30" transform="translate(63.623047 0.765625)"/>
       <use xlink:href="#DejaVuSans-30" transform="translate(128.203125 39.046875) scale(0.7)"/>
      </g>
     </g>
    </g>
    <g id="ytick_5">
     <g id="line2d_23">
      <path d="M 58.933304 58.480234 
L 853.2 58.480234 
" clip-path="url(#pc0fa6af1c6)" style="fill: none; stroke: #ffffff; stroke-width: 0.8; stroke-linecap: square"/>
     </g>
     <g id="line2d_24">
      <g>
       <use xlink:href="#m224b15f216" x="58.933304" y="58.480234" style="fill: #555555; stroke: #555555; stroke-width: 0.8"/>
      </g>
     </g>
     <g id="text_12">
      <!-- $\mathdefault{10^{1}}$ -->
      <g style="fill: #555555" transform="translate(34.333304 62.279453) scale(0.1 -0.1)">
       <use xlink:href="#DejaVuSans-31" transform="translate(0 0.684375)"/>
       <use xlink:href="#DejaVuSans-30" transform="translate(63.623047 0.684375)"/>
       <use xlink:href="#DejaVuSans-31" transform="translate(128.203125 38.965625) scale(0.7)"/>
      </g>
     </g>
    </g>
    <g id="ytick_6">
     <g id="line2d_25">
      <defs>
       <path id="m1f5bb989c6" d="M 0 0 
L -2 0 
" style="stroke: #555555; stroke-width: 0.6"/>
      </defs>
      <g>
       <use xlink:href="#m1f5bb989c6" x="58.933304" y="483.78835" style="fill: #555555; stroke: #555555; stroke-width: 0.6"/>
      </g>
     </g>
    </g>
    <g id="ytick_7">
     <g id="line2d_26">
      <g>
       <use xlink:href="#m1f5bb989c6" x="58.933304" y="478.478108" style="fill: #555555; stroke: #555555; stroke-width: 0.6"/>
      </g>
     </g>
    </g>
    <g id="ytick_8">
     <g id="line2d_27">
      <g>
       <use xlink:href="#m1f5bb989c6" x="58.933304" y="442.477432" style="fill: #555555; stroke: #555555; stroke-width: 0.6"/>
      </g>
     </g>
    </g>
    <g id="ytick_9">
     <g id="line2d_28">
      <g>
       <use xlink:href="#m1f5bb989c6" x="58.933304" y="424.197059" style="fill: #555555; stroke: #555555; stroke-width: 0.6"/>
      </g>
     </g>
    </g>
    <g id="ytick_10">
     <g id="line2d_29">
      <g>
       <use xlink:href="#m1f5bb989c6" x="58.933304" y="411.226928" style="fill: #555555; stroke: #555555; stroke-width: 0.6"/>
      </g>
     </g>
    </g>
    <g id="ytick_11">
     <g id="line2d_30">
      <g>
       <use xlink:href="#m1f5bb989c6" x="58.933304" y="401.166513" style="fill: #555555; stroke: #555555; stroke-width: 0.6"/>
      </g>
     </g>
    </g>
    <g id="ytick_12">
     <g id="line2d_31">
      <g>
       <use xlink:href="#m1f5bb989c6" x="58.933304" y="392.946556" style="fill: #555555; stroke: #555555; stroke-width: 0.6"/>
      </g>
     </g>
    </g>
    <g id="ytick_13">
     <g id="line2d_32">
      <g>
       <use xlink:href="#m1f5bb989c6" x="58.933304" y="385.99668" style="fill: #555555; stroke: #555555; stroke-width: 0.6"/>
      </g>
     </g>
    </g>
    <g id="ytick_14">
     <g id="line2d_33">
      <g>
       <use xlink:href="#m1f5bb989c6" x="58.933304" y="379.976425" style="fill: #555555; stroke: #555555; stroke-width: 0.6"/>
      </g>
     </g>
    </g>
    <g id="ytick_15">
     <g id="line2d_34">
      <g>
       <use xlink:href="#m1f5bb989c6" x="58.933304" y="374.666183" style="fill: #555555; stroke: #555555; stroke-width: 0.6"/>
      </g>
     </g>
    </g>
    <g id="ytick_16">
     <g id="line2d_35">
      <g>
       <use xlink:href="#m1f5bb989c6" x="58.933304" y="338.665506" style="fill: #555555; stroke: #555555; stroke-width: 0.6"/>
      </g>
     </g>
    </g>
    <g id="ytick_17">
     <g id="line2d_36">
      <g>
       <use xlink:href="#m1f5bb989c6" x="58.933304" y="320.385134" style="fill: #555555; stroke: #555555; stroke-width: 0.6"/>
      </g>
     </g>
    </g>
    <g id="ytick_18">
     <g id="line2d_37">
      <g>
       <use xlink:href="#m1f5bb989c6" x="58.933304" y="307.415003" style="fill: #555555; stroke: #555555; stroke-width: 0.6"/>
      </g>
     </g>
    </g>
    <g id="ytick_19">
     <g id="line2d_38">
      <g>
       <use xlink:href="#m1f5bb989c6" x="58.933304" y="297.354588" style="fill: #555555; stroke: #555555; stroke-width: 0.6"/>
      </g>
     </g>
    </g>
    <g id="ytick_20">
     <g id="line2d_39">
      <g>
       <use xlink:href="#m1f5bb989c6" x="58.933304" y="289.13463" style="fill: #555555; stroke: #555555; stroke-width: 0.6"/>
      </g>
     </g>
    </g>
    <g id="ytick_21">
     <g id="line2d_40">
      <g>
       <use xlink:href="#m1f5bb989c6" x="58.933304" y="282.184755" style="fill: #555555; stroke: #555555; stroke-width: 0.6"/>
      </g>
     </g>
    </g>
    <g id="ytick_22">
     <g id="line2d_41">
      <g>
       <use xlink:href="#m1f5bb989c6" x="58.933304" y="276.1645" style="fill: #555555; stroke: #555555; stroke-width: 0.6"/>
      </g>
     </g>
    </g>
    <g id="ytick_23">
     <g id="line2d_42">
      <g>
       <use xlink:href="#m1f5bb989c6" x="58.933304" y="270.854258" style="fill: #555555; stroke: #555555; stroke-width: 0.6"/>
      </g>
     </g>
    </g>
    <g id="ytick_24">
     <g id="line2d_43">
      <g>
       <use xlink:href="#m1f5bb989c6" x="58.933304" y="234.853581" style="fill: #555555; stroke: #555555; stroke-width: 0.6"/>
      </g>
     </g>
    </g>
    <g id="ytick_25">
     <g id="line2d_44">
      <g>
       <use xlink:href="#m1f5bb989c6" x="58.933304" y="216.573209" style="fill: #555555; stroke: #555555; stroke-width: 0.6"/>
      </g>
     </g>
    </g>
    <g id="ytick_26">
     <g id="line2d_45">
      <g>
       <use xlink:href="#m1f5bb989c6" x="58.933304" y="203.603078" style="fill: #555555; stroke: #555555; stroke-width: 0.6"/>
      </g>
     </g>
    </g>
    <g id="ytick_27">
     <g id="line2d_46">
      <g>
       <use xlink:href="#m1f5bb989c6" x="58.933304" y="193.542663" style="fill: #555555; stroke: #555555; stroke-width: 0.6"/>
      </g>
     </g>
    </g>
    <g id="ytick_28">
     <g id="line2d_47">
      <g>
       <use xlink:href="#m1f5bb989c6" x="58.933304" y="185.322705" style="fill: #555555; stroke: #555555; stroke-width: 0.6"/>
      </g>
     </g>
    </g>
    <g id="ytick_29">
     <g id="line2d_48">
      <g>
       <use xlink:href="#m1f5bb989c6" x="58.933304" y="178.37283" style="fill: #555555; stroke: #555555; stroke-width: 0.6"/>
      </g>
     </g>
    </g>
    <g id="ytick_30">
     <g id="line2d_49">
      <g>
       <use xlink:href="#m1f5bb989c6" x="58.933304" y="172.352574" style="fill: #555555; stroke: #555555; stroke-width: 0.6"/>
      </g>
     </g>
    </g>
    <g id="ytick_31">
     <g id="line2d_50">
      <g>
       <use xlink:href="#m1f5bb989c6" x="58.933304" y="167.042333" style="fill: #555555; stroke: #555555; stroke-width: 0.6"/>
      </g>
     </g>
    </g>
    <g id="ytick_32">
     <g id="line2d_51">
      <g>
       <use xlink:href="#m1f5bb989c6" x="58.933304" y="131.041656" style="fill: #555555; stroke: #555555; stroke-width: 0.6"/>
      </g>
     </g>
    </g>
    <g id="ytick_33">
     <g id="line2d_52">
      <g>
       <use xlink:href="#m1f5bb989c6" x="58.933304" y="112.761283" style="fill: #555555; stroke: #555555; stroke-width: 0.6"/>
      </g>
     </g>
    </g>
    <g id="ytick_34">
     <g id="line2d_53">
      <g>
       <use xlink:href="#m1f5bb989c6" x="58.933304" y="99.791153" style="fill: #555555; stroke: #555555; stroke-width: 0.6"/>
      </g>
     </g>
    </g>
    <g id="ytick_35">
     <g id="line2d_54">
      <g>
       <use xlink:href="#m1f5bb989c6" x="58.933304" y="89.730738" style="fill: #555555; stroke: #555555; stroke-width: 0.6"/>
      </g>
     </g>
    </g>
    <g id="ytick_36">
     <g id="line2d_55">
      <g>
       <use xlink:href="#m1f5bb989c6" x="58.933304" y="81.51078" style="fill: #555555; stroke: #555555; stroke-width: 0.6"/>
      </g>
     </g>
    </g>
    <g id="ytick_37">
     <g id="line2d_56">
      <g>
       <use xlink:href="#m1f5bb989c6" x="58.933304" y="74.560905" style="fill: #555555; stroke: #555555; stroke-width: 0.6"/>
      </g>
     </g>
    </g>
    <g id="ytick_38">
     <g id="line2d_57">
      <g>
       <use xlink:href="#m1f5bb989c6" x="58.933304" y="68.540649" style="fill: #555555; stroke: #555555; stroke-width: 0.6"/>
      </g>
     </g>
    </g>
    <g id="ytick_39">
     <g id="line2d_58">
      <g>
       <use xlink:href="#m1f5bb989c6" x="58.933304" y="63.230407" style="fill: #555555; stroke: #555555; stroke-width: 0.6"/>
      </g>
     </g>
    </g>
    <g id="text_13">
     <!-- Normalized Runtime (log scale) (runtime / baseline_runtime) -->
     <g style="fill: #555555" transform="translate(21.603929 437.862206) rotate(-90) scale(0.12 -0.12)">
      <defs>
       <path id="DejaVuSans-4e" d="M 628 4666 
L 1478 4666 
L 3547 763 
L 3547 4666 
L 4159 4666 
L 4159 0 
L 3309 0 
L 1241 3903 
L 1241 0 
L 628 0 
L 628 4666 
z
" transform="scale(0.015625)"/>
       <path id="DejaVuSans-6d" d="M 3328 2828 
Q 3544 3216 3844 3400 
Q 4144 3584 4550 3584 
Q 5097 3584 5394 3201 
Q 5691 2819 5691 2113 
L 5691 0 
L 5113 0 
L 5113 2094 
Q 5113 2597 4934 2840 
Q 4756 3084 4391 3084 
Q 3944 3084 3684 2787 
Q 3425 2491 3425 1978 
L 3425 0 
L 2847 0 
L 2847 2094 
Q 2847 2600 2669 2842 
Q 2491 3084 2119 3084 
Q 1678 3084 1418 2786 
Q 1159 2488 1159 1978 
L 1159 0 
L 581 0 
L 581 3500 
L 1159 3500 
L 1159 2956 
Q 1356 3278 1631 3431 
Q 1906 3584 2284 3584 
Q 2666 3584 2933 3390 
Q 3200 3197 3328 2828 
z
" transform="scale(0.015625)"/>
       <path id="DejaVuSans-7a" d="M 353 3500 
L 3084 3500 
L 3084 2975 
L 922 459 
L 3084 459 
L 3084 0 
L 275 0 
L 275 525 
L 2438 3041 
L 353 3041 
L 353 3500 
z
" transform="scale(0.015625)"/>
       <path id="DejaVuSans-52" d="M 2841 2188 
Q 3044 2119 3236 1894 
Q 3428 1669 3622 1275 
L 4263 0 
L 3584 0 
L 2988 1197 
Q 2756 1666 2539 1819 
Q 2322 1972 1947 1972 
L 1259 1972 
L 1259 0 
L 628 0 
L 628 4666 
L 2053 4666 
Q 2853 4666 3247 4331 
Q 3641 3997 3641 3322 
Q 3641 2881 3436 2590 
Q 3231 2300 2841 2188 
z
M 1259 4147 
L 1259 2491 
L 2053 2491 
Q 2509 2491 2742 2702 
Q 2975 2913 2975 3322 
Q 2975 3731 2742 3939 
Q 2509 4147 2053 4147 
L 1259 4147 
z
" transform="scale(0.015625)"/>
       <path id="DejaVuSans-28" d="M 1984 4856 
Q 1566 4138 1362 3434 
Q 1159 2731 1159 2009 
Q 1159 1288 1364 580 
Q 1569 -128 1984 -844 
L 1484 -844 
Q 1016 -109 783 600 
Q 550 1309 550 2009 
Q 550 2706 781 3412 
Q 1013 4119 1484 4856 
L 1984 4856 
z
" transform="scale(0.015625)"/>
       <path id="DejaVuSans-63" d="M 3122 3366 
L 3122 2828 
Q 2878 2963 2633 3030 
Q 2388 3097 2138 3097 
Q 1578 3097 1268 2742 
Q 959 2388 959 1747 
Q 959 1106 1268 751 
Q 1578 397 2138 397 
Q 2388 397 2633 464 
Q 2878 531 3122 666 
L 3122 134 
Q 2881 22 2623 -34 
Q 2366 -91 2075 -91 
Q 1284 -91 818 406 
Q 353 903 353 1747 
Q 353 2603 823 3093 
Q 1294 3584 2113 3584 
Q 2378 3584 2631 3529 
Q 2884 3475 3122 3366 
z
" transform="scale(0.015625)"/>
       <path id="DejaVuSans-29" d="M 513 4856 
L 1013 4856 
Q 1481 4119 1714 3412 
Q 1947 2706 1947 2009 
Q 1947 1309 1714 600 
Q 1481 -109 1013 -844 
L 513 -844 
Q 928 -128 1133 580 
Q 1338 1288 1338 2009 
Q 1338 2731 1133 3434 
Q 928 4138 513 4856 
z
" transform="scale(0.015625)"/>
       <path id="DejaVuSans-2f" d="M 1625 4666 
L 2156 4666 
L 531 -594 
L 0 -594 
L 1625 4666 
z
" transform="scale(0.015625)"/>
       <path id="DejaVuSans-62" d="M 3116 1747 
Q 3116 2381 2855 2742 
Q 2594 3103 2138 3103 
Q 1681 3103 1420 2742 
Q 1159 2381 1159 1747 
Q 1159 1113 1420 752 
Q 1681 391 2138 391 
Q 2594 391 2855 752 
Q 3116 1113 3116 1747 
z
M 1159 2969 
Q 1341 3281 1617 3432 
Q 1894 3584 2278 3584 
Q 2916 3584 3314 3078 
Q 3713 2572 3713 1747 
Q 3713 922 3314 415 
Q 2916 -91 2278 -91 
Q 1894 -91 1617 61 
Q 1341 213 1159 525 
L 1159 0 
L 581 0 
L 581 4863 
L 1159 4863 
L 1159 2969 
z
" transform="scale(0.015625)"/>
       <path id="DejaVuSans-5f" d="M 3263 -1063 
L 3263 -1509 
L -63 -1509 
L -63 -1063 
L 3263 -1063 
z
" transform="scale(0.015625)"/>
      </defs>
      <use xlink:href="#DejaVuSans-4e"/>
      <use xlink:href="#DejaVuSans-6f" transform="translate(74.804688 0)"/>
      <use xlink:href="#DejaVuSans-72" transform="translate(135.986328 0)"/>
      <use xlink:href="#DejaVuSans-6d" transform="translate(175.349609 0)"/>
      <use xlink:href="#DejaVuSans-61" transform="translate(272.761719 0)"/>
      <use xlink:href="#DejaVuSans-6c" transform="translate(334.041016 0)"/>
      <use xlink:href="#DejaVuSans-69" transform="translate(361.824219 0)"/>
      <use xlink:href="#DejaVuSans-7a" transform="translate(389.607422 0)"/>
      <use xlink:href="#DejaVuSans-65" transform="translate(442.097656 0)"/>
      <use xlink:href="#DejaVuSans-64" transform="translate(503.621094 0)"/>
      <use xlink:href="#DejaVuSans-20" transform="translate(567.097656 0)"/>
      <use xlink:href="#DejaVuSans-52" transform="translate(598.884766 0)"/>
      <use xlink:href="#DejaVuSans-75" transform="translate(663.867188 0)"/>
      <use xlink:href="#DejaVuSans-6e" transform="translate(727.246094 0)"/>
      <use xlink:href="#DejaVuSans-74" transform="translate(790.625 0)"/>
      <use xlink:href="#DejaVuSans-69" transform="translate(829.833984 0)"/>
      <use xlink:href="#DejaVuSans-6d" transform="translate(857.617188 0)"/>
      <use xlink:href="#DejaVuSans-65" transform="translate(955.029297 0)"/>
      <use xlink:href="#DejaVuSans-20" transform="translate(1016.552734 0)"/>
      <use xlink:href="#DejaVuSans-28" transform="translate(1048.339844 0)"/>
      <use xlink:href="#DejaVuSans-6c" transform="translate(1087.353516 0)"/>
      <use xlink:href="#DejaVuSans-6f" transform="translate(1115.136719 0)"/>
      <use xlink:href="#DejaVuSans-67" transform="translate(1176.318359 0)"/>
      <use xlink:href="#DejaVuSans-20" transform="translate(1239.794922 0)"/>
      <use xlink:href="#DejaVuSans-73" transform="translate(1271.582031 0)"/>
      <use xlink:href="#DejaVuSans-63" transform="translate(1323.681641 0)"/>
      <use xlink:href="#DejaVuSans-61" transform="translate(1378.662109 0)"/>
      <use xlink:href="#DejaVuSans-6c" transform="translate(1439.941406 0)"/>
      <use xlink:href="#DejaVuSans-65" transform="translate(1467.724609 0)"/>
      <use xlink:href="#DejaVuSans-29" transform="translate(1529.248047 0)"/>
      <use xlink:href="#DejaVuSans-20" transform="translate(1568.261719 0)"/>
      <use xlink:href="#DejaVuSans-28" transform="translate(1600.048828 0)"/>
      <use xlink:href="#DejaVuSans-72" transform="translate(1639.0625 0)"/>
      <use xlink:href="#DejaVuSans-75" transform="translate(1680.175781 0)"/>
      <use xlink:href="#DejaVuSans-6e" transform="translate(1743.554688 0)"/>
      <use xlink:href="#DejaVuSans-74" transform="translate(1806.933594 0)"/>
      <use xlink:href="#DejaVuSans-69" transform="translate(1846.142578 0)"/>
      <use xlink:href="#DejaVuSans-6d" transform="translate(1873.925781 0)"/>
      <use xlink:href="#DejaVuSans-65" transform="translate(1971.337891 0)"/>
      <use xlink:href="#DejaVuSans-20" transform="translate(2032.861328 0)"/>
      <use xlink:href="#DejaVuSans-2f" transform="translate(2064.648438 0)"/>
      <use xlink:href="#DejaVuSans-20" transform="translate(2098.339844 0)"/>
      <use xlink:href="#DejaVuSans-62" transform="translate(2130.126953 0)"/>
      <use xlink:href="#DejaVuSans-61" transform="translate(2193.603516 0)"/>
      <use xlink:href="#DejaVuSans-73" transform="translate(2254.882812 0)"/>
      <use xlink:href="#DejaVuSans-65" transform="translate(2306.982422 0)"/>
      <use xlink:href="#DejaVuSans-6c" transform="translate(2368.505859 0)"/>
      <use xlink:href="#DejaVuSans-69" transform="translate(2396.289062 0)"/>
      <use xlink:href="#DejaVuSans-6e" transform="translate(2424.072266 0)"/>
      <use xlink:href="#DejaVuSans-65" transform="translate(2487.451172 0)"/>
      <use xlink:href="#DejaVuSans-5f" transform="translate(2548.974609 0)"/>
      <use xlink:href="#DejaVuSans-72" transform="translate(2598.974609 0)"/>
      <use xlink:href="#DejaVuSans-75" transform="translate(2640.087891 0)"/>
      <use xlink:href="#DejaVuSans-6e" transform="translate(2703.466797 0)"/>
      <use xlink:href="#DejaVuSans-74" transform="translate(2766.845703 0)"/>
      <use xlink:href="#DejaVuSans-69" transform="translate(2806.054688 0)"/>
      <use xlink:href="#DejaVuSans-6d" transform="translate(2833.837891 0)"/>
      <use xlink:href="#DejaVuSans-65" transform="translate(2931.25 0)"/>
      <use xlink:href="#DejaVuSans-29" transform="translate(2992.773438 0)"/>
     </g>
    </g>
   </g>
   <g id="line2d_59">
    <path d="M 87.299972 324.353099 
L 144.033307 324.353099 
L 144.033307 117.882941 
L 87.299972 117.882941 
L 87.299972 324.353099 
" clip-path="url(#pc0fa6af1c6)" style="fill: none; stroke: #000000; stroke-linecap: square"/>
   </g>
   <g id="line2d_60">
    <path d="M 115.666639 324.353099 
L 115.666639 461.56669 
" clip-path="url(#pc0fa6af1c6)" style="fill: none; stroke: #000000; stroke-linecap: square"/>
   </g>
   <g id="line2d_61">
    <path d="M 115.666639 117.882941 
L 115.666639 85.433683 
" clip-path="url(#pc0fa6af1c6)" style="fill: none; stroke: #000000; stroke-linecap: square"/>
   </g>
   <g id="line2d_62">
    <path d="M 101.483305 461.56669 
L 129.849973 461.56669 
" clip-path="url(#pc0fa6af1c6)" style="fill: none; stroke: #000000; stroke-linecap: square"/>
   </g>
   <g id="line2d_63">
    <path d="M 101.483305 85.433683 
L 129.849973 85.433683 
" clip-path="url(#pc0fa6af1c6)" style="fill: none; stroke: #000000; stroke-linecap: square"/>
   </g>
   <g id="line2d_64">
    <path d="M 200.766642 273.963378 
L 257.499978 273.963378 
L 257.499978 116.600819 
L 200.766642 116.600819 
L 200.766642 273.963378 
" clip-path="url(#pc0fa6af1c6)" style="fill: none; stroke: #000000; stroke-linecap: square"/>
   </g>
   <g id="line2d_65">
    <path d="M 229.13331 273.963378 
L 229.13331 432.262602 
" clip-path="url(#pc0fa6af1c6)" style="fill: none; stroke: #000000; stroke-linecap: square"/>
   </g>
   <g id="line2d_66">
    <path d="M 229.13331 116.600819 
L 229.13331 79.670323 
" clip-path="url(#pc0fa6af1c6)" style="fill: none; stroke: #000000; stroke-linecap: square"/>
   </g>
   <g id="line2d_67">
    <path d="M 214.949976 432.262602 
L 243.316644 432.262602 
" clip-path="url(#pc0fa6af1c6)" style="fill: none; stroke: #000000; stroke-linecap: square"/>
   </g>
   <g id="line2d_68">
    <path d="M 214.949976 79.670323 
L 243.316644 79.670323 
" clip-path="url(#pc0fa6af1c6)" style="fill: none; stroke: #000000; stroke-linecap: square"/>
   </g>
   <g id="line2d_69">
    <path d="M 314.233313 359.028097 
L 370.966649 359.028097 
L 370.966649 98.903432 
L 314.233313 98.903432 
L 314.233313 359.028097 
" clip-path="url(#pc0fa6af1c6)" style="fill: none; stroke: #000000; stroke-linecap: square"/>
   </g>
   <g id="line2d_70">
    <path d="M 342.599981 359.028097 
L 342.599981 463.554666 
" clip-path="url(#pc0fa6af1c6)" style="fill: none; stroke: #000000; stroke-linecap: square"/>
   </g>
   <g id="line2d_71">
    <path d="M 342.599981 98.903432 
L 342.599981 92.520387 
" clip-path="url(#pc0fa6af1c6)" style="fill: none; stroke: #000000; stroke-linecap: square"/>
   </g>
   <g id="line2d_72">
    <path d="M 328.416647 463.554666 
L 356.783315 463.554666 
" clip-path="url(#pc0fa6af1c6)" style="fill: none; stroke: #000000; stroke-linecap: square"/>
   </g>
   <g id="line2d_73">
    <path d="M 328.416647 92.520387 
L 356.783315 92.520387 
" clip-path="url(#pc0fa6af1c6)" style="fill: none; stroke: #000000; stroke-linecap: square"/>
   </g>
   <g id="line2d_74">
    <path d="M 427.699984 218.395177 
L 484.43332 218.395177 
L 484.43332 48.359746 
L 427.699984 48.359746 
L 427.699984 218.395177 
" clip-path="url(#pc0fa6af1c6)" style="fill: none; stroke: #000000; stroke-linecap: square"/>
   </g>
   <g id="line2d_75">
    <path d="M 456.066652 218.395177 
L 456.066652 428.755998 
" clip-path="url(#pc0fa6af1c6)" style="fill: none; stroke: #000000; stroke-linecap: square"/>
   </g>
   <g id="line2d_76">
    <path d="M 456.066652 48.359746 
L 456.066652 48.359746 
" clip-path="url(#pc0fa6af1c6)" style="fill: none; stroke: #000000; stroke-linecap: square"/>
   </g>
   <g id="line2d_77">
    <path d="M 441.883318 428.755998 
L 470.249986 428.755998 
" clip-path="url(#pc0fa6af1c6)" style="fill: none; stroke: #000000; stroke-linecap: square"/>
   </g>
   <g id="line2d_78">
    <path d="M 441.883318 48.359746 
L 470.249986 48.359746 
" clip-path="url(#pc0fa6af1c6)" style="fill: none; stroke: #000000; stroke-linecap: square"/>
   </g>
   <g id="line2d_79">
    <path d="M 541.166655 285.978307 
L 597.899991 285.978307 
L 597.899991 55.995184 
L 541.166655 55.995184 
L 541.166655 285.978307 
" clip-path="url(#pc0fa6af1c6)" style="fill: none; stroke: #000000; stroke-linecap: square"/>
   </g>
   <g id="line2d_80">
    <path d="M 569.533323 285.978307 
L 569.533323 426.076896 
" clip-path="url(#pc0fa6af1c6)" style="fill: none; stroke: #000000; stroke-linecap: square"/>
   </g>
   <g id="line2d_81">
    <path d="M 569.533323 55.995184 
L 569.533323 49.024995 
" clip-path="url(#pc0fa6af1c6)" style="fill: none; stroke: #000000; stroke-linecap: square"/>
   </g>
   <g id="line2d_82">
    <path d="M 555.349989 426.076896 
L 583.716657 426.076896 
" clip-path="url(#pc0fa6af1c6)" style="fill: none; stroke: #000000; stroke-linecap: square"/>
   </g>
   <g id="line2d_83">
    <path d="M 555.349989 49.024995 
L 583.716657 49.024995 
" clip-path="url(#pc0fa6af1c6)" style="fill: none; stroke: #000000; stroke-linecap: square"/>
   </g>
   <g id="line2d_84">
    <path d="M 654.633326 300.160706 
L 711.366661 300.160706 
L 711.366661 69.704338 
L 654.633326 69.704338 
L 654.633326 300.160706 
" clip-path="url(#pc0fa6af1c6)" style="fill: none; stroke: #000000; stroke-linecap: square"/>
   </g>
   <g id="line2d_85">
    <path d="M 682.999994 300.160706 
L 682.999994 378.314284 
" clip-path="url(#pc0fa6af1c6)" style="fill: none; stroke: #000000; stroke-linecap: square"/>
   </g>
   <g id="line2d_86">
    <path d="M 682.999994 69.704338 
L 682.999994 69.704338 
" clip-path="url(#pc0fa6af1c6)" style="fill: none; stroke: #000000; stroke-linecap: square"/>
   </g>
   <g id="line2d_87">
    <path d="M 668.81666 378.314284 
L 697.183328 378.314284 
" clip-path="url(#pc0fa6af1c6)" style="fill: none; stroke: #000000; stroke-linecap: square"/>
   </g>
   <g id="line2d_88">
    <path d="M 668.81666 69.704338 
L 697.183328 69.704338 
" clip-path="url(#pc0fa6af1c6)" style="fill: none; stroke: #000000; stroke-linecap: square"/>
   </g>
   <g id="line2d_89">
    <path d="M 768.099997 375.562672 
L 824.833332 375.562672 
L 824.833332 201.62463 
L 768.099997 201.62463 
L 768.099997 375.562672 
" clip-path="url(#pc0fa6af1c6)" style="fill: none; stroke: #000000; stroke-linecap: square"/>
   </g>
   <g id="line2d_90">
    <path d="M 796.466665 375.562672 
L 796.466665 433.608521 
" clip-path="url(#pc0fa6af1c6)" style="fill: none; stroke: #000000; stroke-linecap: square"/>
   </g>
   <g id="line2d_91">
    <path d="M 796.466665 201.62463 
L 796.466665 176.095677 
" clip-path="url(#pc0fa6af1c6)" style="fill: none; stroke: #000000; stroke-linecap: square"/>
   </g>
   <g id="line2d_92">
    <path d="M 782.283331 433.608521 
L 810.649998 433.608521 
" clip-path="url(#pc0fa6af1c6)" style="fill: none; stroke: #000000; stroke-linecap: square"/>
   </g>
   <g id="line2d_93">
    <path d="M 782.283331 176.095677 
L 810.649998 176.095677 
" clip-path="url(#pc0fa6af1c6)" style="fill: none; stroke: #000000; stroke-linecap: square"/>
   </g>
   <g id="line2d_94">
    <path d="M 58.933304 162.292159 
L 853.2 162.292159 
" clip-path="url(#pc0fa6af1c6)" style="fill: none; stroke-dasharray: 7.4,3.2; stroke-dashoffset: 0; stroke: #ff0000; stroke-width: 2"/>
   </g>
   <g id="line2d_95">
    <path d="M 87.299972 224.793166 
L 144.033307 224.793166 
" clip-path="url(#pc0fa6af1c6)" style="fill: none; stroke: #348abd"/>
   </g>
   <g id="line2d_96">
    <path d="M 200.766642 179.113345 
L 257.499978 179.113345 
" clip-path="url(#pc0fa6af1c6)" style="fill: none; stroke: #348abd"/>
   </g>
   <g id="line2d_97">
    <path d="M 314.233313 146.321974 
L 370.966649 146.321974 
" clip-path="url(#pc0fa6af1c6)" style="fill: none; stroke: #348abd"/>
   </g>
   <g id="line2d_98">
    <path d="M 427.699984 108.040329 
L 484.43332 108.040329 
" clip-path="url(#pc0fa6af1c6)" style="fill: none; stroke: #348abd"/>
   </g>
   <g id="line2d_99">
    <path d="M 541.166655 163.294088 
L 597.899991 163.294088 
" clip-path="url(#pc0fa6af1c6)" style="fill: none; stroke: #348abd"/>
   </g>
   <g id="line2d_100">
    <path d="M 654.633326 212.724926 
L 711.366661 212.724926 
" clip-path="url(#pc0fa6af1c6)" style="fill: none; stroke: #348abd"/>
   </g>
   <g id="line2d_101">
    <path d="M 768.099997 274.703593 
L 824.833332 274.703593 
" clip-path="url(#pc0fa6af1c6)" style="fill: none; stroke: #348abd"/>
   </g>
   <g id="patch_3">
    <path d="M 58.933304 484.314412 
L 58.933304 27.6 
" style="fill: none; stroke: #ffffff; stroke-linejoin: miter; stroke-linecap: square"/>
   </g>
   <g id="patch_4">
    <path d="M 853.2 484.314412 
L 853.2 27.6 
" style="fill: none; stroke: #ffffff; stroke-linejoin: miter; stroke-linecap: square"/>
   </g>
   <g id="patch_5">
    <path d="M 58.933304 484.314412 
L 853.2 484.314412 
" style="fill: none; stroke: #ffffff; stroke-linejoin: miter; stroke-linecap: square"/>
   </g>
   <g id="patch_6">
    <path d="M 58.933304 27.6 
L 853.2 27.6 
" style="fill: none; stroke: #ffffff; stroke-linejoin: miter; stroke-linecap: square"/>
   </g>
   <g id="text_14">
    <!-- Aggregate Performance Across All Problems -->
    <g transform="translate(298.187527 21.6) scale(0.144 -0.144)">
     <defs>
      <path id="DejaVuSans-50" d="M 1259 4147 
L 1259 2394 
L 2053 2394 
Q 2494 2394 2734 2622 
Q 2975 2850 2975 3272 
Q 2975 3691 2734 3919 
Q 2494 4147 2053 4147 
L 1259 4147 
z
M 628 4666 
L 2053 4666 
Q 2838 4666 3239 4311 
Q 3641 3956 3641 3272 
Q 3641 2581 3239 2228 
Q 2838 1875 2053 1875 
L 1259 1875 
L 1259 0 
L 628 0 
L 628 4666 
z
" transform="scale(0.015625)"/>
     </defs>
     <use xlink:href="#DejaVuSans-41"/>
     <use xlink:href="#DejaVuSans-67" transform="translate(68.408203 0)"/>
     <use xlink:href="#DejaVuSans-67" transform="translate(131.884766 0)"/>
     <use xlink:href="#DejaVuSans-72" transform="translate(195.361328 0)"/>
     <use xlink:href="#DejaVuSans-65" transform="translate(234.224609 0)"/>
     <use xlink:href="#DejaVuSans-67" transform="translate(295.748047 0)"/>
     <use xlink:href="#DejaVuSans-61" transform="translate(359.224609 0)"/>
     <use xlink:href="#DejaVuSans-74" transform="translate(420.503906 0)"/>
     <use xlink:href="#DejaVuSans-65" transform="translate(459.712891 0)"/>
     <use xlink:href="#DejaVuSans-20" transform="translate(521.236328 0)"/>
     <use xlink:href="#DejaVuSans-50" transform="translate(553.023438 0)"/>
     <use xlink:href="#DejaVuSans-65" transform="translate(609.701172 0)"/>
     <use xlink:href="#DejaVuSans-72" transform="translate(671.224609 0)"/>
     <use xlink:href="#DejaVuSans-66" transform="translate(712.337891 0)"/>
     <use xlink:href="#DejaVuSans-6f" transform="translate(747.542969 0)"/>
     <use xlink:href="#DejaVuSans-72" transform="translate(808.724609 0)"/>
     <use xlink:href="#DejaVuSans-6d" transform="translate(848.087891 0)"/>
     <use xlink:href="#DejaVuSans-61" transform="translate(945.5 0)"/>
     <use xlink:href="#DejaVuSans-6e" transform="translate(1006.779297 0)"/>
     <use xlink:href="#DejaVuSans-63" transform="translate(1070.158203 0)"/>
     <use xlink:href="#DejaVuSans-65" transform="translate(1125.138672 0)"/>
     <use xlink:href="#DejaVuSans-20" transform="translate(1186.662109 0)"/>
     <use xlink:href="#DejaVuSans-41" transform="translate(1218.449219 0)"/>
     <use xlink:href="#DejaVuSans-63" transform="translate(1285.107422 0)"/>
     <use xlink:href="#DejaVuSans-72" transform="translate(1340.087891 0)"/>
     <use xlink:href="#DejaVuSans-6f" transform="translate(1378.951172 0)"/>
     <use xlink:href="#DejaVuSans-73" transform="translate(1440.132812 0)"/>
     <use xlink:href="#DejaVuSans-73" transform="translate(1492.232422 0)"/>
     <use xlink:href="#DejaVuSans-20" transform="translate(1544.332031 0)"/>
     <use xlink:href="#DejaVuSans-41" transform="translate(1576.119141 0)"/>
     <use xlink:href="#DejaVuSans-6c" transform="translate(1644.527344 0)"/>
     <use xlink:href="#DejaVuSans-6c" transform="translate(1672.310547 0)"/>
     <use xlink:href="#DejaVuSans-20" transform="translate(1700.09375 0)"/>
     <use xlink:href="#DejaVuSans-50" transform="translate(1731.880859 0)"/>
     <use xlink:href="#DejaVuSans-72" transform="translate(1790.433594 0)"/>
     <use xlink:href="#DejaVuSans-6f" transform="translate(1829.296875 0)"/>
     <use xlink:href="#DejaVuSans-62" transform="translate(1890.478516 0)"/>
     <use xlink:href="#DejaVuSans-6c" transform="translate(1953.955078 0)"/>
     <use xlink:href="#DejaVuSans-65" transform="translate(1981.738281 0)"/>
     <use xlink:href="#DejaVuSans-6d" transform="translate(2043.261719 0)"/>
     <use xlink:href="#DejaVuSans-73" transform="translate(2140.673828 0)"/>
    </g>
   </g>
   <g id="legend_1">
    <g id="patch_7">
     <path d="M 705.259375 50.278125 
L 846.2 50.278125 
Q 848.2 50.278125 848.2 48.278125 
L 848.2 34.6 
Q 848.2 32.6 846.2 32.6 
L 705.259375 32.6 
Q 703.259375 32.6 703.259375 34.6 
L 703.259375 48.278125 
Q 703.259375 50.278125 705.259375 50.278125 
z
" style="fill: #e5e5e5; opacity: 0.8; stroke: #cccccc; stroke-width: 0.5; stroke-linejoin: miter"/>
    </g>
    <g id="line2d_102">
     <path d="M 707.259375 40.698437 
L 717.259375 40.698437 
L 727.259375 40.698437 
" style="fill: none; stroke-dasharray: 7.4,3.2; stroke-dashoffset: 0; stroke: #ff0000; stroke-width: 2"/>
    </g>
    <g id="text_15">
     <!-- Baseline Performance -->
     <g transform="translate(735.259375 44.198437) scale(0.1 -0.1)">
      <use xlink:href="#DejaVuSans-42"/>
      <use xlink:href="#DejaVuSans-61" transform="translate(68.603516 0)"/>
      <use xlink:href="#DejaVuSans-73" transform="translate(129.882812 0)"/>
      <use xlink:href="#DejaVuSans-65" transform="translate(181.982422 0)"/>
      <use xlink:href="#DejaVuSans-6c" transform="translate(243.505859 0)"/>
      <use xlink:href="#DejaVuSans-69" transform="translate(271.289062 0)"/>
      <use xlink:href="#DejaVuSans-6e" transform="translate(299.072266 0)"/>
      <use xlink:href="#DejaVuSans-65" transform="translate(362.451172 0)"/>
      <use xlink:href="#DejaVuSans-20" transform="translate(423.974609 0)"/>
      <use xlink:href="#DejaVuSans-50" transform="translate(455.761719 0)"/>
      <use xlink:href="#DejaVuSans-65" transform="translate(512.439453 0)"/>
      <use xlink:href="#DejaVuSans-72" transform="translate(573.962891 0)"/>
      <use xlink:href="#DejaVuSans-66" transform="translate(615.076172 0)"/>
      <use xlink:href="#DejaVuSans-6f" transform="translate(650.28125 0)"/>
      <use xlink:href="#DejaVuSans-72" transform="translate(711.462891 0)"/>
      <use xlink:href="#DejaVuSans-6d" transform="translate(750.826172 0)"/>
      <use xlink:href="#DejaVuSans-61" transform="translate(848.238281 0)"/>
      <use xlink:href="#DejaVuSans-6e" transform="translate(909.517578 0)"/>
      <use xlink:href="#DejaVuSans-63" transform="translate(972.896484 0)"/>
      <use xlink:href="#DejaVuSans-65" transform="translate(1027.876953 0)"/>
     </g>
    </g>
   </g>
  </g>
 </g>
 <defs>
  <clipPath id="pc0fa6af1c6">
   <rect x="58.933304" y="27.6" width="794.266696" height="456.714412"/>
  </clipPath>
 </defs>
</svg>
